<?xml version="1.0" encoding="UTF-8"?>
<svg id="_레이어_1" data-name="레이어_1" xmlns="http://www.w3.org/2000/svg" version="1.1" xmlns:xlink="http://www.w3.org/1999/xlink" viewBox="0 0 40 40">
  <!-- Generator: Adobe Illustrator 29.0.0, SVG Export Plug-In . SVG Version: 2.1.0 Build 186)  -->
  <defs>
    <style>
      .st0 {
        fill: url(#_무제_그라디언트_2);
      }

      .st1 {
        fill: url(#_무제_그라디언트);
        fill-rule: evenodd;
        isolation: isolate;
        opacity: .2;
      }
    </style>
    <linearGradient id="_무제_그라디언트" data-name="무제 그라디언트" x1="-3.9" y1="28.5" x2="24.7" y2="12" gradientTransform="translate(39.9 31) rotate(-90) scale(1 -1)" gradientUnits="userSpaceOnUse">
      <stop offset=".3" stop-color="#ffdb6e"/>
      <stop offset="1" stop-color="#ffbc5e"/>
    </linearGradient>
    <linearGradient id="_무제_그라디언트_2" data-name="무제 그라디언트 2" x1="4.3" y1="29.2" x2="34.5" y2="11.5" gradientTransform="translate(0 40) rotate(-90)" gradientUnits="userSpaceOnUse">
      <stop offset=".3" stop-color="#ffdb6e"/>
      <stop offset="1" stop-color="#ffbc5e"/>
    </linearGradient>
  </defs>
  <path class="st1" d="M1,28c0,1.1.9,2,2,2h34c1.1,0,2-.9,2-2v-15.9c0-1.1-.9-2-2-2H3c-1.1,0-2,.9-2,2v3.2h1v9.4H1v3.2Z"/>
  <path class="st0" d="M35.7,22.5c0,.4.3.7.7.7s.7-.3.7-.7h-1.4ZM37,17.5c0-.4-.3-.7-.7-.7s-.7.3-.7.7h1.4ZM29.4,30.6c.4,0,.7-.3.7-.7s-.3-.7-.7-.7v1.4ZM32.4,29.2c-.4,0-.7.3-.7.7s.3.7.7.7v-1.4ZM7.6,10.8c.4,0,.7-.3.7-.7s-.3-.7-.7-.7v1.4ZM10.6,9.4c-.4,0-.7.3-.7.7s.3.7.7.7v-1.4ZM38.6,12.5v15h1.4v-15h-1.4ZM1.3,27.5v-3H0v3h1.4ZM1.7,25.1v-1.4H.7v1.4h1ZM3.3,23.5v-7h-1.4v7h1.4ZM1.3,24.5v-8.9H0v8.9h1.4ZM1.3,15.5v-3H0v3h1.4ZM1.7,14.9H.7v1.4h1v-1.4ZM37,22.5v-5h-1.4v5h1.4ZM29.4,29.2H3.1v1.4h26.3v-1.4ZM36.9,29.2h-4.5v1.4h4.5v-1.4ZM3.1,10.8h4.5v-1.4H3.1v1.4ZM10.6,10.8h26.3v-1.4H10.6v1.4ZM3.3,16.5c0-.9-.7-1.6-1.6-1.6v1.4c.2,0,.3.1.3.3h1.4ZM38.6,27.5c0,1-.8,1.7-1.7,1.7v1.4c1.7,0,3.1-1.4,3.1-3.1h-1.4ZM40,12.5c0-1.7-1.4-3.1-3.1-3.1v1.4c1,0,1.7.8,1.7,1.7h1.4ZM1.3,12.5c0-1,.8-1.7,1.7-1.7v-1.4C1.4,9.4,0,10.8,0,12.5h1.4ZM1.7,25.1c.9,0,1.6-.7,1.6-1.6h-1.4c0,.2-.1.3-.3.3v1.4ZM0,27.5c0,1.7,1.4,3.1,3.1,3.1v-1.4c-1,0-1.7-.8-1.7-1.7H0Z"/>
</svg>